<?xml version="1.0" standalone="no"?>
<!DOCTYPE svg PUBLIC "-//W3C//DTD SVG 20010904//EN"
 "http://www.w3.org/TR/2001/REC-SVG-20010904/DTD/svg10.dtd">
<svg version="1.0" xmlns="http://www.w3.org/2000/svg"
 width="512.000000pt" height="512.000000pt" viewBox="0 0 512.000000 512.000000"
 preserveAspectRatio="xMidYMid meet">
<metadata>
Created by potrace 1.11, written by Peter Selinger 2001-2013
</metadata>
<g transform="translate(0.000000,512.000000) scale(0.100000,-0.100000)"
fill="#000000" stroke="none">
<path d="M1059 4139 c-44 -44 -123 -260 -154 -419 -23 -118 -30 -347 -15 -467
21 -170 66 -336 134 -487 14 -32 26 -65 26 -74 0 -8 -23 -51 -51 -94 -73 -114
-117 -213 -133 -298 -8 -42 -21 -79 -30 -86 -9 -6 -93 -23 -187 -38 -94 -15
-177 -30 -185 -33 -8 -3 -14 -16 -14 -30 0 -40 31 -152 46 -164 11 -9 48 -7
157 10 167 25 191 26 207 6 6 -8 14 -41 17 -73 l6 -59 -148 -89 c-81 -49 -153
-97 -159 -106 -8 -14 -4 -31 23 -80 19 -35 41 -71 51 -81 17 -18 19 -18 59 3
23 11 50 29 60 38 10 9 23 18 28 19 6 1 40 21 75 43 34 22 71 40 80 40 10 0
25 -12 35 -27 108 -176 174 -252 317 -367 148 -120 257 -176 495 -258 138 -47
163 -53 356 -84 190 -31 494 -43 652 -25 254 29 471 81 657 160 208 88 341
177 477 318 77 81 109 122 183 240 14 24 34 43 43 43 9 0 66 -31 127 -69 159
-98 155 -97 176 -75 10 11 33 48 51 83 24 48 30 67 22 80 -6 9 -76 56 -157
104 -146 88 -146 88 -146 125 0 20 5 54 11 75 12 46 17 46 216 16 109 -17 146
-19 157 -10 15 12 46 124 46 164 0 14 -6 27 -14 30 -8 3 -91 18 -185 33 -94
15 -178 32 -187 39 -10 7 -22 42 -30 86 -16 85 -60 183 -133 297 -28 43 -51
86 -51 94 0 9 12 42 26 74 66 148 124 362 127 469 1 40 5 71 10 68 12 -7 7
237 -8 347 -8 58 -24 139 -35 180 -27 97 -100 280 -111 280 -5 0 -9 7 -9 15 0
19 -31 35 -67 35 -86 0 -423 -113 -423 -142 0 -5 -4 -7 -8 -4 -14 8 -266 -167
-372 -259 -57 -49 -160 -150 -229 -223 l-126 -133 -190 3 c-104 2 -232 1 -282
0 l-93 -4 -172 175 c-191 192 -269 258 -433 367 -145 96 -275 156 -414 191
-136 35 -174 36 -202 8z m946 -1393 c58 -27 88 -57 110 -108 36 -87 1 -200
-77 -254 -75 -53 -208 -34 -275 38 -53 57 -67 151 -33 226 50 111 163 151 275
98z m1280 0 c58 -27 88 -57 110 -108 36 -87 1 -200 -77 -254 -75 -53 -208 -34
-275 38 -53 57 -67 151 -33 226 50 111 163 151 275 98z m-537 -639 c2 -10 -24
-72 -57 -138 -34 -66 -61 -127 -61 -137 0 -35 61 -122 113 -161 64 -49 157
-76 226 -66 137 20 253 128 278 258 8 43 21 57 52 57 47 0 55 -13 48 -73 -11
-106 -95 -230 -198 -290 -26 -15 -84 -37 -129 -48 -74 -19 -92 -20 -154 -10
-96 16 -168 53 -237 122 -33 33 -65 59 -71 59 -7 0 -35 -23 -62 -50 -96 -98
-263 -155 -382 -132 -179 36 -329 190 -342 351 -5 58 3 71 49 71 31 0 44 -14
52 -57 25 -130 141 -238 278 -258 69 -10 162 17 226 66 52 39 113 126 113 161
0 10 -27 71 -60 135 -58 114 -68 142 -53 157 4 3 88 5 187 4 165 -3 181 -5
184 -21z"/>
</g>
</svg>
